<svg width="86" height="21" viewBox="0 0 86 21" fill="none" xmlns="http://www.w3.org/2000/svg">
<path d="M11.04 11.389C13.1541 11.389 14.5635 12.2348 14.5635 13.5032V15.5101C14.5636 15.7415 14.5732 15.9708 15.1982 16.0286C15.8331 16.0872 18.2647 16.0644 20.2012 15.7347C21.4959 15.5142 22.0808 15.2645 23.4902 14.5599C24.1949 15.4994 24.5233 18.178 20.2012 19.4935C17.3824 20.5504 13.8588 20.4329 11.04 20.4329C8.22129 20.4329 4.69763 20.5505 1.87891 19.4935C1.86225 19.4872 0.000182438 18.7821 0 17.3792C0 15.8453 1.25859 15.5004 1.87891 15.5003C2.49912 15.5003 6.24859 16.0872 6.88281 16.0286C7.51633 15.97 7.5166 15.735 7.5166 15.5003V13.5032C7.5166 12.2348 8.92604 11.389 11.04 11.389ZM34.835 9.15361C34.8907 9.7143 35.2348 10.0975 35.3379 10.2854C35.9956 11.2013 37.3578 11.7414 39.1191 11.7415C40.8249 11.7415 42.1571 11.2351 42.8369 10.3714C43.3911 10.6961 44.1611 11.3093 44.1611 12.2112C44.1611 13.7453 42.9015 14.0901 42.2812 14.0901C41.6603 14.09 37.9128 13.5033 37.2783 13.5618C36.6531 13.6196 36.6437 13.8489 36.6436 14.0804L36.6533 17.9661C36.6533 19.2345 35.2439 20.0803 33.1299 20.0804C31.0158 20.0804 29.6064 19.2346 29.6064 17.9661L29.5967 14.0901C29.5965 13.8587 29.5879 13.6293 28.9629 13.5716C28.3287 13.513 26.7278 13.4156 24.791 13.7454C23.4963 13.9659 22.3151 14.3249 21.1406 15.0296C21.1409 13.62 22.5507 10.5672 25.3691 9.86259C28.1877 9.15798 30.8652 9.15751 33.1201 9.15751C33.6682 9.15751 34.2439 9.15299 34.835 9.15361ZM62.7363 0.466106C63.5816 0.466264 64.1453 1.03003 64.1455 1.87529V17.9661C64.1455 19.2345 62.7361 20.0803 60.6221 20.0804C58.508 20.0804 57.0986 19.2346 57.0986 17.9661V1.17118C57.0986 0.7485 57.3801 0.466281 57.8027 0.466106H62.7363ZM75.0771 11.6243C81.6306 11.6243 84.4734 12.9393 84.4736 15.8518C84.4736 18.7646 81.6308 20.0804 75.0771 20.0804C68.5471 20.0803 65.6816 18.7646 65.6816 15.8518C65.6818 12.9393 68.5238 11.6243 75.0771 11.6243ZM51.8135 0.466106C52.6588 0.466211 53.2225 1.02999 53.2227 1.87529V11.389C53.2227 14.3487 54.2096 16.3216 55.6895 16.3216C56.112 16.3218 56.3936 16.604 56.3936 17.0267V19.1409C56.3935 19.5635 56.112 19.8448 55.6895 19.845C53.4816 19.845 51.6727 18.9528 50.4043 17.4026C49.1359 18.9528 47.327 19.8449 45.1191 19.845C44.6964 19.845 44.4142 19.5636 44.4141 19.1409V17.0267C44.4141 16.6038 44.6963 16.3216 45.1191 16.3216C46.5987 16.3212 47.585 14.3483 47.585 11.389V1.87529C47.5852 1.03002 48.1488 0.466254 48.9941 0.466106H51.8135ZM75.0771 15.1477C73.4333 15.1478 72.7288 15.3353 72.7285 15.8518C72.7285 16.3216 73.4564 16.5569 75.0771 16.5569C76.7214 16.5569 77.4258 16.3216 77.4258 15.8518C77.4255 15.3353 76.7211 15.1477 75.0771 15.1477ZM19.2617 0.348919C20.1072 0.348972 20.6708 0.912623 20.6709 1.7581V11.5061C20.6709 12.3517 20.1073 12.9162 19.2617 12.9163H15.1982C14.8459 11.5539 13.2716 10.6849 11.04 10.6849C8.80859 10.6849 7.23515 11.5539 6.88281 12.9163H2.81836C1.97296 12.9161 1.40918 12.3516 1.40918 11.5061V1.7581C1.40927 0.91272 1.97303 0.349102 2.81836 0.348919H19.2617ZM82.9463 0.466106C83.7918 0.466106 84.3553 1.00644 84.3555 1.87529V3.87236H85.0605C85.6242 3.87247 86 4.57714 86 5.63408C86 6.69103 85.6242 7.39568 85.0605 7.39579H84.3555V9.04033C84.3553 10.2616 83.0403 11.1545 81.0674 11.1546C79.0943 11.1546 77.7785 10.3087 77.7783 9.04033V1.17118C77.7783 0.748369 78.0606 0.466106 78.4834 0.466106H82.9463ZM41.2334 0.58427C42.079 0.58427 42.6426 1.14782 42.6426 1.99345V8.92314C42.6422 10.1913 41.233 11.0364 39.1191 11.0364C37.0056 11.0363 35.596 10.1912 35.5957 8.92314V4.45927C35.5955 4.24817 35.4552 4.10786 35.2441 4.10771H24.0859C23.6633 4.10761 23.3819 3.82535 23.3818 3.40263V1.99345C23.3818 1.14782 23.9454 0.58427 24.791 0.58427H41.2334ZM76.3691 0.466106C76.792 0.466106 77.0742 0.748369 77.0742 1.17118V3.28544C77.0741 3.70809 76.7919 3.98954 76.3691 3.98954H74.1377V5.3997C74.1379 6.73833 75.0304 7.63112 76.3691 7.63115C76.7919 7.63115 77.0741 7.91254 77.0742 8.33525V10.2142C77.0742 10.637 76.792 10.9192 76.3691 10.9192C74.2789 10.9192 72.5408 10.3557 71.3193 9.36943C70.0979 10.356 68.3591 10.9192 66.2686 10.9192C65.8458 10.9192 65.5635 10.6369 65.5635 10.2142V8.33525C65.5636 7.91255 65.8458 7.63117 66.2686 7.63115C67.6073 7.63115 68.4998 6.73835 68.5 5.3997V3.98954H66.2686C65.8459 3.98952 65.5636 3.70807 65.5635 3.28544V1.17118C65.5635 0.748388 65.8458 0.466132 66.2686 0.466106H76.3691ZM8.80859 3.87236C8.57374 3.87238 8.45605 3.99002 8.45605 4.2249V9.04033C8.45612 9.27507 8.5738 9.39284 8.80859 9.39286H13.2715C13.5063 9.39286 13.624 9.27509 13.624 9.04033V4.2249C13.624 3.99 13.5064 3.87236 13.2715 3.87236H8.80859Z" fill="white"/>
</svg>
