<svg width="144" height="144" viewBox="0 0 144 144" fill="none" xmlns="http://www.w3.org/2000/svg">
<g clip-path="url(#clip0_104_245)">
<rect width="144" height="144" fill="white"/>
<rect width="144" height="144" fill="url(#paint0_linear_104_245)"/>
<g filter="url(#filter0_d_104_245)">
<path d="M115.769 28.5V43.25C115.769 45.95 112.769 47.75 108.269 47.75C103.769 47.75 100.77 45.95 100.77 43.25V33.75C100.77 33.3 100.47 33 100.02 33H76.2695C75.3695 33 74.7695 32.4 74.7695 31.5V28.5C74.7695 26.7 75.9695 25.5 77.7695 25.5H112.769C114.569 25.5 115.769 26.7 115.769 28.5Z" fill="white"/>
<path d="M103 54.2288L103.019 62.5C103.019 65.2 100.02 67 95.5195 67C91.0195 67 88.0195 65.2 88.0195 62.5L88 54.25C87.9997 53.7571 87.9809 53.2694 86.65 53.1465C85.3 53.0217 81.8924 52.8132 77.7695 53.5154C75.0135 53.9847 72.5 54.75 70 56.25C70 53.25 73 46.75 79 45.25C85 43.75 90.7 43.75 95.5 43.75C96.6667 43.75 97.8902 43.7405 99.1483 43.7419C99.2669 44.9354 100 45.75 100.22 46.15C101.62 48.1 104.519 49.25 108.269 49.25C111.901 49.25 114.735 48.1718 116.182 46.3331C117.361 47.0243 119 48.3299 119 50.25C119 53.5155 116.32 54.25 115 54.25C113.68 54.25 105.7 53.0005 104.35 53.1252C103.019 53.2482 103 53.7359 103 54.2288Z" fill="white"/>
<path d="M43.75 44.25H53.25C53.75 44.25 54 44 54 43.5V33.25C54 32.75 53.75 32.5 53.25 32.5H43.75C43.25 32.5 43 32.75 43 33.25V43.5C43 44 43.25 44.25 43.75 44.25ZM39.65 51.75H31C29.2 51.75 28 50.55 28 48.75V28C28 26.2 29.2 25 31 25H66C67.8 25 69 26.2 69 28V48.75C69 50.55 67.8 51.75 66 51.75H57.35C56.6 48.85 53.25 47 48.5 47C43.75 47 40.4 48.85 39.65 51.75Z" fill="white"/>
<path d="M29 65.75C29 65.75 25 64.25 25 61.25C25 57.9845 27.6798 57.25 29 57.25C30.3202 57.25 38.3 58.4995 39.65 58.3748C41 58.25 41 57.75 41 57.25V53C41 50.3 44 48.5 48.5 48.5C53 48.5 56 50.3 56 53V57.2712C56.0003 57.7641 56.0191 58.2518 57.35 58.3748C58.7 58.4995 63.8771 58.4521 68 57.75C70.756 57.2806 72 56.75 75 55.25C76.5 57.25 77.2 62.95 68 65.75C62 68 54.5 67.75 48.5 67.75C42.5 67.75 35 68 29 65.75Z" fill="white"/>
<path d="M73.2695 107.75C73.2695 101.55 79.3195 98.75 93.2695 98.75C107.22 98.75 113.27 101.55 113.27 107.75C113.27 113.95 107.22 116.75 93.2695 116.75C79.3695 116.75 73.2695 113.95 73.2695 107.75ZM96.0195 82.5H91.2695V85.5C91.2695 88.35 93.1695 90.25 96.0195 90.25C96.9195 90.25 97.5195 90.85 97.5195 91.75V95.75C97.5195 96.65 96.9195 97.25 96.0195 97.25C91.5695 97.25 87.8695 96.05 85.2695 93.95C82.6695 96.05 78.9695 97.25 74.5195 97.25C73.6195 97.25 73.0195 96.65 73.0195 95.75V91.75C73.0195 90.85 73.6195 90.25 74.5195 90.25C77.3695 90.25 79.2695 88.35 79.2695 85.5V82.5H74.5195C73.6195 82.5 73.0195 81.9 73.0195 81V76.5C73.0195 75.6 73.6195 75 74.5195 75H96.0195C96.9195 75 97.5195 75.6 97.5195 76.5V81C97.5195 81.9 96.9195 82.5 96.0195 82.5ZM114.52 89.75H113.02V93.25C113.02 95.85 110.22 97.75 106.02 97.75C101.82 97.75 99.0195 95.95 99.0195 93.25V76.5C99.0195 75.6 99.6195 75 100.52 75H110.02C111.82 75 113.02 76.15 113.02 78V82.25H114.52C115.72 82.25 116.52 83.75 116.52 86C116.52 88.25 115.72 89.75 114.52 89.75ZM88.2695 107.75C88.2695 108.75 89.8195 109.25 93.2695 109.25C96.7695 109.25 98.2695 108.75 98.2695 107.75C98.2695 106.65 96.7695 106.25 93.2695 106.25C89.7695 106.25 88.2695 106.65 88.2695 107.75Z" fill="white"/>
<path d="M40.75 111.05C38.05 114.35 34.2 116.25 29.5 116.25C28.6 116.25 28 115.65 28 114.75V110.25C28 109.35 28.6 108.75 29.5 108.75C32.65 108.75 34.75 104.55 34.75 98.25V78C34.75 76.2 35.95 75 37.75 75H43.75C45.55 75 46.75 76.2 46.75 78V98.25C46.75 104.55 48.85 108.75 52 108.75C52.9 108.75 53.5 109.35 53.5 110.25V114.75C53.5 115.65 52.9 116.25 52 116.25C47.3 116.25 43.45 114.35 40.75 111.05ZM70 78V112.25C70 114.95 67 116.75 62.5 116.75C58 116.75 55 114.95 55 112.25V76.5C55 75.6 55.6 75 56.5 75H67C68.8 75 70 76.2 70 78Z" fill="white"/>
</g>
</g>
<defs>
<filter id="filter0_d_104_245" x="21" y="25" width="102" height="99.75" filterUnits="userSpaceOnUse" color-interpolation-filters="sRGB">
<feFlood flood-opacity="0" result="BackgroundImageFix"/>
<feColorMatrix in="SourceAlpha" type="matrix" values="0 0 0 0 0 0 0 0 0 0 0 0 0 0 0 0 0 0 127 0" result="hardAlpha"/>
<feOffset dy="4"/>
<feGaussianBlur stdDeviation="2"/>
<feComposite in2="hardAlpha" operator="out"/>
<feColorMatrix type="matrix" values="0 0 0 0 0 0 0 0 0 0 0 0 0 0 0 0 0 0 0.25 0"/>
<feBlend mode="overlay" in2="BackgroundImageFix" result="effect1_dropShadow_104_245"/>
<feBlend mode="normal" in="SourceGraphic" in2="effect1_dropShadow_104_245" result="shape"/>
</filter>
<linearGradient id="paint0_linear_104_245" x1="72" y1="0" x2="72" y2="144" gradientUnits="userSpaceOnUse">
<stop stop-color="#A2E994"/>
<stop offset="1" stop-color="#4CC554"/>
</linearGradient>
<clipPath id="clip0_104_245">
<rect width="144" height="144" fill="white"/>
</clipPath>
</defs>
</svg>
